<svg xmlns="http://www.w3.org/2000/svg" width="32" height="32" viewBox="0 0 32 32">
  <path id="icone-configurações" d="M46.574,10.415a1.363,1.363,0,0,1-.424,1.538l-2.871,2.463a11.239,11.239,0,0,1,0,3.176l2.871,2.463a1.363,1.363,0,0,1,.424,1.538,15.092,15.092,0,0,1-1.048,2.144l-.312.506a15.947,15.947,0,0,1-1.465,1.95,1.561,1.561,0,0,1-1.625.425l-3.694-1.106A12.971,12.971,0,0,1,35.513,27.1l-.829,3.569a1.461,1.461,0,0,1-1.207,1.113,18.26,18.26,0,0,1-5.636,0,1.461,1.461,0,0,1-1.207-1.113L25.8,27.1a12.971,12.971,0,0,1-2.918-1.588L19.2,26.624a1.573,1.573,0,0,1-1.625-.425,15.948,15.948,0,0,1-1.465-1.95l-.312-.506A15.092,15.092,0,0,1,14.751,21.6a1.363,1.363,0,0,1,.424-1.538L18.047,17.6A11.573,11.573,0,0,1,17.934,16a11.414,11.414,0,0,1,.113-1.588l-2.871-2.463a1.363,1.363,0,0,1-.424-1.538A15.092,15.092,0,0,1,15.8,8.27l.312-.506a15.948,15.948,0,0,1,1.465-1.95A1.561,1.561,0,0,1,19.2,5.389L22.894,6.5a12.971,12.971,0,0,1,2.918-1.588l.829-3.569A1.461,1.461,0,0,1,27.847.225,17.413,17.413,0,0,1,30.666,0a18.152,18.152,0,0,1,2.818.219,1.461,1.461,0,0,1,1.207,1.113L35.52,4.9a12.971,12.971,0,0,1,2.918,1.588l3.694-1.106a1.573,1.573,0,0,1,1.625.425,15.947,15.947,0,0,1,1.465,1.95l.312.506a15.092,15.092,0,0,1,1.048,2.144ZM30.666,21a5.158,5.158,0,0,0,5.3-5,5.314,5.314,0,0,0-10.61,0A5.158,5.158,0,0,0,30.666,21Z" transform="translate(-14.662)" fill="#e9e9e9"/>
</svg>
