<svg xmlns="http://www.w3.org/2000/svg" width="32" height="32" viewBox="0 0 32 32">
  <g id="icone-contato" transform="translate(-3.374 -3.376)">
    <path id="União_6" data-name="União 6" d="M27.218,31.855l-4.85-4.468a.838.838,0,0,0-.583-.245H12.027a2.93,2.93,0,0,1-2.933-2.925V12.348a2.936,2.936,0,0,1,2.933-2.932H29.078A2.915,2.915,0,0,1,32,12.348V24.21a3.2,3.2,0,0,1-3.238,2.922h-.076c-.463,0-.753.146-.753.609v3.893a.353.353,0,0,1-.371.366A.5.5,0,0,1,27.218,31.855ZM2.51,17.725A2.51,2.51,0,0,1,0,15.216V2.507A2.509,2.509,0,0,1,2.51,0H20.869a2.509,2.509,0,0,1,2.507,2.507V7.53H9.728a2.52,2.52,0,0,0-2.517,2.509v7.686Z" transform="translate(3.374 3.376)" fill="#e9e9e9"/>
  </g>
</svg>
