<svg xmlns="http://www.w3.org/2000/svg" width="32" height="32" viewBox="0 0 32 32">
  <path id="icone-solicitar-planejamento" d="M29.782,6.312a3.533,3.533,0,0,0-5,0l-1.9,1.895,6.182,6.182,1.9-1.9a3.533,3.533,0,0,0,0-5ZM10.887,20.205a3.489,3.489,0,0,0-.853,1.383L8.165,27.2a1.523,1.523,0,0,0,.366,1.554,1.5,1.5,0,0,0,1.554.366l5.608-1.869a3.656,3.656,0,0,0,1.383-.853L27.641,15.823,21.452,9.634ZM6.062,8.984A6.064,6.064,0,0,0,0,15.046V31.213a6.064,6.064,0,0,0,6.062,6.062H22.229a6.064,6.064,0,0,0,6.062-6.062V25.15a2.021,2.021,0,0,0-4.042,0v6.062a2.019,2.019,0,0,1-2.021,2.021H6.062a2.019,2.019,0,0,1-2.021-2.021V15.046a2.019,2.019,0,0,1,2.021-2.021h6.062a2.021,2.021,0,0,0,0-4.042Z" transform="translate(0 -5.275)" fill="#e9e9e9"/>
</svg>
