<svg xmlns="http://www.w3.org/2000/svg" width="32" height="25" viewBox="0 0 32 25">
  <path id="icone-galeria-casos" d="M4.928,42.7,0,51.185V35.571A3.567,3.567,0,0,1,3.556,32h6.528A3.549,3.549,0,0,1,12.6,33.044l1.472,1.479a3.549,3.549,0,0,0,2.517,1.044h6.523a3.567,3.567,0,0,1,3.556,3.571v1.786H8A3.552,3.552,0,0,0,4.928,42.7Zm1.533.9A1.778,1.778,0,0,1,8,42.714H30.224a1.764,1.764,0,0,1,1.539.9,1.794,1.794,0,0,1-.006,1.791L25.535,56.118A1.769,1.769,0,0,1,24,57H1.778a1.764,1.764,0,0,1-1.539-.9A1.794,1.794,0,0,1,.244,54.31L6.467,43.6Z" transform="translate(0 -32)" fill="#e9e9e9"/>
</svg>
